<svg xmlns:xlink="http://www.w3.org/1999/xlink" xmlns="http://www.w3.org/2000/svg" class="UserDropDowns_icon_06" width="20px" height="null" viewBox="0 0 24 24" stroke="#2F3337" fill="#2F3337"><title>Cart Empty</title><path fill-rule="evenodd" clip-rule="evenodd" d="M7.174 14.4L5.208.833C5.14.356 4.697 0 4.174 0h-3.13C.466 0 0 .43 0 .96s.467.96 1.043.96H3.26l1.966 13.567c.07.477.512.833 1.035.833h14.608c.498 0 .926-.323 1.024-.772l2.087-9.6c.113-.52-.254-1.025-.819-1.13-.565-.103-1.115.234-1.228.754L20.014 14.4H7.174zm.13 9.6a2.087 2.087 0 100-4.174 2.087 2.087 0 000 4.174zm14.61-2.087a2.087 2.087 0 11-4.175 0 2.087 2.087 0 014.174 0z" stroke="none" fill="#2F3337"></path></svg>