<svg viewBox="639 422.8754 97.2161 70.2491" width="116.24565154571376" height="84" xmlns="http://www.w3.org/2000/svg" xmlns:xlink="http://www.w3.org/1999/xlink" preserveAspectRatio="none"><g opacity="1" transform="rotate(0 639 422.8754)">
<svg width="97.2161" height="70.2491" x="639" y="422.8754" version="1.1" preserveAspectRatio="none" viewBox="4.998996734619141 22.9689998626709 89.99700927734375 65.03251647949219"><defs><path d="m64.887712 82.20856a5.792963 5.792963 0 0 1 -11.585926 0 5.792963 5.792963 0 1 1 11.585926 0" id="a" color="#000" fill="#FFFFFF"></path></defs>
  <g transform="matrix(1 0 0 1 0 0)" class="aIptOCySncolors-09d5cbf01-8fbb-4f75-98de-95009635ed05" fill="#FFFFFF"><path d="m75.53 22.969l-3.594 12.03h-11.969l3.75 30.438-41.03 5.063-4.344-35.5h-13.344l11.563 38.688 49.781.094c3.852-12.931 7.753-25.847 11.594-38.781l1.969-6.594h15.09v-5.438h-19.469m-57.19 12.03h41.625l-1.313-10.563-41 5.03.688 5.531" fill="#FFFFFF"></path><path d="m64.887712 82.20856a5.792963 5.792963 0 0 1 -11.585926 0 5.792963 5.792963 0 1 1 11.585926 0" id="a" color="#000" fill="#FFFFFF"></path><use transform="translate(-33.26)" xlink:href="#a" width="100" height="100" fill="#FFFFFF"></use><path transform="matrix(.98618.16566-.16566.98618 0 0)" color="#000" d="m35.03 33.861h21.777v21.777h-21.777z" fill="#FFFFFF"></path></g>
</svg>
</g></svg>