<svg xmlns:xlink="http://www.w3.org/1999/xlink" width="144" height="144" viewBox="0 0 144 144" fill="none" xmlns="http://www.w3.org/2000/svg"><path d="M79.2727 5C79.2727 4.44772 78.825 4 78.2727 4C77.7204 4 77.2727 4.44772 77.2727 5V8.0815H74.1818C73.6295 8.0815 73.1818 8.52922 73.1818 9.0815C73.1818 9.63379 73.6295 10.0815 74.1818 10.0815H77.2727V13.163C77.2727 13.7153 77.7204 14.163 78.2727 14.163C78.825 14.163 79.2727 13.7153 79.2727 13.163V10.0815H82.3636C82.9159 10.0815 83.3636 9.63379 83.3636 9.0815C83.3636 8.52922 82.9159 8.0815 82.3636 8.0815H79.2727V5Z" fill="#DADCDF"></path><path fill-rule="evenodd" clip-rule="evenodd" d="M8.72727 67.8608C11.8904 67.8608 14.4545 65.3025 14.4545 62.1467C14.4545 58.9909 11.8904 56.4326 8.72727 56.4326C5.56419 56.4326 3 58.9909 3 62.1467C3 65.3025 5.56419 67.8608 8.72727 67.8608ZM8.72727 65.8608C10.7901 65.8608 12.4545 64.1936 12.4545 62.1467C12.4545 60.0998 10.7901 58.4326 8.72727 58.4326C6.66441 58.4326 5 60.0998 5 62.1467C5 64.1936 6.66441 65.8608 8.72727 65.8608Z" fill="#DADCDF"></path><path fill-rule="evenodd" clip-rule="evenodd" d="M121.636 129.095C124.799 129.095 127.364 126.536 127.364 123.381C127.364 120.225 124.799 117.667 121.636 117.667C118.473 117.667 115.909 120.225 115.909 123.381C115.909 126.536 118.473 129.095 121.636 129.095ZM121.636 127.095C123.699 127.095 125.364 125.428 125.364 123.381C125.364 121.334 123.699 119.667 121.636 119.667C119.573 119.667 117.909 121.334 117.909 123.381C117.909 125.428 119.573 127.095 121.636 127.095Z" fill="#DADCDF"></path><path d="M9.36365 116.844C9.36365 116.292 9.81136 115.844 10.3636 115.844H26.7273C27.2796 115.844 27.7273 116.292 27.7273 116.844C27.7273 117.397 27.2796 117.844 26.7273 117.844H10.3636C9.81136 117.844 9.36365 117.397 9.36365 116.844Z" fill="#DADCDF"></path><path d="M13.0455 122.559C13.0455 122.006 13.4932 121.559 14.0455 121.559H23.0455C23.5978 121.559 24.0455 122.006 24.0455 122.559C24.0455 123.111 23.5978 123.559 23.0455 123.559H14.0455C13.4932 123.559 13.0455 123.111 13.0455 122.559Z" fill="#DADCDF"></path><path d="M126.955 62.7793C126.402 62.7793 125.955 63.227 125.955 63.7793C125.955 64.3316 126.402 64.7793 126.955 64.7793H135.955C136.507 64.7793 136.955 64.3316 136.955 63.7793C136.955 63.227 136.507 62.7793 135.955 62.7793H126.955Z" fill="#DADCDF"></path><path d="M123.273 68.4934C122.72 68.4934 122.273 68.9411 122.273 69.4934C122.273 70.0457 122.72 70.4934 123.273 70.4934H139.636C140.189 70.4934 140.636 70.0457 140.636 69.4934C140.636 68.9411 140.189 68.4934 139.636 68.4934H123.273Z" fill="#DADCDF"></path><path d="M126.955 74.2075C126.402 74.2075 125.955 74.6552 125.955 75.2075C125.955 75.7598 126.402 76.2075 126.955 76.2075H135.955C136.507 76.2075 136.955 75.7598 136.955 75.2075C136.955 74.6552 136.507 74.2075 135.955 74.2075H126.955Z" fill="#DADCDF"></path><path d="M71.9213 88.2617C68.7165 88.2617 66.1184 85.6845 66.1184 82.5053C66.1184 81.457 66.401 80.4741 66.8946 79.6275L59.6249 63.5844C58.8305 61.8313 59.6192 59.77 61.3866 58.9804C63.1539 58.1907 65.2306 58.9717 66.025 60.7248L73.3678 76.9292C74.492 77.2154 75.4847 77.8273 76.2373 78.6575L100.132 68.4529C101.148 68.019 102.327 68.4863 102.764 69.4966C103.202 70.507 102.732 71.6779 101.716 72.1118L77.7224 82.3587C77.7236 82.4074 77.7242 82.4563 77.7242 82.5053C77.7242 85.6845 75.1262 88.2617 71.9213 88.2617Z" fill="#DADCDF"></path><path d="M71.9214 46.3318C72.4745 46.3318 72.9228 46.7776 72.9228 47.3275V51.2992C72.9228 51.8491 72.4745 52.2948 71.9214 52.2948C71.3683 52.2948 70.92 51.8491 70.92 51.2992V47.3275C70.92 46.7776 71.3683 46.3318 71.9214 46.3318Z" fill="#DADCDF"></path><path d="M46.0459 56.8372C46.4365 56.4479 47.0705 56.4472 47.4621 56.8355L50.2932 59.644C50.6847 60.0323 50.6854 60.6628 50.2948 61.0521C49.9042 61.4413 49.2701 61.4421 48.8786 61.0537L46.0475 58.2453C45.656 57.8569 45.6552 57.2265 46.0459 56.8372Z" fill="#DADCDF"></path><path d="M97.7682 56.8372C98.1588 57.2265 98.1581 57.8569 97.7666 58.2453L94.9355 61.0537C94.5439 61.4421 93.9099 61.4413 93.5192 61.0521C93.1286 60.6628 93.1294 60.0323 93.5209 59.644L96.352 56.8355C96.7435 56.4472 97.3776 56.4479 97.7682 56.8372Z" fill="#DADCDF"></path><path d="M35.458 82.5053C35.458 81.9554 35.9063 81.5096 36.4594 81.5096H40.4631C41.0162 81.5096 41.4646 81.9554 41.4646 82.5053C41.4646 83.0552 41.0162 83.501 40.4631 83.501H36.4594C35.9063 83.501 35.458 83.0552 35.458 82.5053Z" fill="#DADCDF"></path><path d="M102.378 82.5053C102.378 81.9554 102.827 81.5096 103.38 81.5096H107.383C107.937 81.5096 108.385 81.9554 108.385 82.5053C108.385 83.0552 107.937 83.501 107.383 83.501H103.38C102.827 83.501 102.378 83.0552 102.378 82.5053Z" fill="#DADCDF"></path><path d="M50.3236 103.959C50.7142 104.348 50.7135 104.978 50.3219 105.367L47.4908 108.175C47.0993 108.563 46.4652 108.563 46.0746 108.173C45.684 107.784 45.6847 107.154 46.0763 106.765L48.9074 103.957C49.2989 103.569 49.9329 103.569 50.3236 103.959Z" fill="#DADCDF"></path><path d="M93.5193 103.959C93.9099 103.569 94.544 103.569 94.9355 103.957L97.7666 106.765C98.1581 107.154 98.1588 107.784 97.7682 108.173C97.3776 108.563 96.7435 108.563 96.352 108.175L93.5209 105.367C93.1294 104.978 93.1286 104.348 93.5193 103.959Z" fill="#DADCDF"></path><path d="M71.9214 112.716C72.4745 112.716 72.9228 113.162 72.9228 113.711V117.683C72.9228 118.233 72.4745 118.679 71.9214 118.679C71.3683 118.679 70.92 118.233 70.92 117.683V113.711C70.92 113.162 71.3683 112.716 71.9214 112.716Z" fill="#DADCDF"></path><path fill-rule="evenodd" clip-rule="evenodd" d="M117.896 22.125C119.14 20.3656 118.713 17.9393 116.941 16.7055C115.168 15.4718 112.723 15.8979 111.478 17.6572L109.592 20.323C99.7845 15.6267 87.8474 18.205 80.9104 26.716C80.5025 27.2164 80.1119 27.7373 79.7401 28.2784L79.1496 29.1377L95.5841 40.2505L93.4902 43.2977C87.0644 39.7908 79.6853 37.7963 71.8377 37.7963C64.0028 37.7963 56.6348 39.7843 50.2164 43.2807L48.2235 40.3806L64.8504 29.1377L64.2599 28.2784C63.8881 27.7373 63.4975 27.2164 63.0897 26.716C56.2016 18.2652 44.384 15.6635 34.616 20.2245L32.987 17.8442C31.77 16.0658 29.3356 15.6082 27.5496 16.822C25.7636 18.0359 25.3024 20.4615 26.5194 22.2399L28.1677 24.6484C20.5139 32.0156 18.7263 43.7361 24.0841 53.0909C24.4046 53.6504 24.7506 54.2014 25.1224 54.7425L25.7129 55.6019L41.8536 44.6878L43.801 47.5217C33.4253 55.7303 26.7739 68.3938 26.7739 82.6019C26.7739 96.4483 33.0909 108.828 43.0158 117.047L39.5981 122.02C38.3981 123.767 38.8512 126.146 40.6102 127.336C42.3692 128.525 44.768 128.074 45.968 126.327L49.3337 121.429C55.9557 125.232 63.6411 127.408 71.8377 127.408C80.1543 127.408 87.9448 125.168 94.6321 121.261L97.9723 126.122C99.1723 127.868 101.571 128.32 103.33 127.131C105.089 125.941 105.542 123.561 104.342 121.815L100.918 116.831C110.694 108.612 116.901 96.3279 116.901 82.6019C116.901 68.4065 110.262 55.753 99.9022 47.5437L101.954 44.5577L118.287 55.6019L118.878 54.7425C119.249 54.2014 119.595 53.6504 119.916 53.0909C125.235 43.8037 123.512 32.1846 115.997 24.8086L117.896 22.125ZM46.4303 37.771L40.0604 42.0782L40.1588 42.2214L26.578 51.4045C21.4742 42.2391 24.1461 30.5596 33.0358 24.5486C41.9254 18.5375 53.8612 20.3396 60.5958 28.4023L46.5287 37.9142L46.4303 37.771ZM110.964 24.5486C119.854 30.5596 122.526 42.2391 117.422 51.4045L83.4043 28.4023C90.1388 20.3396 102.075 18.5375 110.964 24.5486ZM113.951 82.6019C113.951 105.677 95.1276 124.441 71.8377 124.441C48.5478 124.441 29.7245 105.677 29.7245 82.6019C29.7245 59.5265 48.5478 40.7633 71.8377 40.7633C95.1276 40.7633 113.951 59.5265 113.951 82.6019Z" fill="#DADCDF"></path></svg>